<svg width="242" height="85" viewBox="0 0 242 85" fill="none" xmlns="http://www.w3.org/2000/svg">
<path d="M104.414 36.5273L99.5508 51H96.1406L102.516 33.9375H104.695L104.414 36.5273ZM108.48 51L103.594 36.5273L103.301 33.9375H105.492L111.902 51H108.48ZM108.258 44.6602V47.2031H99.1055V44.6602H108.258ZM125.899 47.6602L130.153 33.9375H133.727L127.704 51H125.325L125.899 47.6602ZM121.973 33.9375L126.204 47.6602L126.813 51H124.411L118.411 33.9375H121.973ZM148.58 36.5273L143.716 51H140.306L146.681 33.9375H148.861L148.58 36.5273ZM152.646 51L147.759 36.5273L147.466 33.9375H149.658L156.068 51H152.646ZM152.423 44.6602V47.2031H143.271V44.6602H152.423ZM170.873 33.9375V51H167.662V33.9375H170.873ZM176.17 33.9375V36.4805H162.424V33.9375H176.17ZM191.105 36.5273L186.241 51H182.831L189.206 33.9375H191.386L191.105 36.5273ZM195.171 51L190.284 36.5273L189.991 33.9375H192.183L198.593 51H195.171ZM194.948 44.6602V47.2031H185.796V44.6602H194.948ZM207.551 33.9375H213.75C215.047 33.9375 216.16 34.1328 217.09 34.5234C218.02 34.9141 218.734 35.4922 219.234 36.2578C219.734 37.0234 219.984 37.9648 219.984 39.082C219.984 39.9648 219.828 40.7305 219.516 41.3789C219.203 42.0273 218.762 42.5703 218.191 43.0078C217.629 43.4453 216.965 43.7891 216.199 44.0391L215.191 44.5547H209.719L209.695 42.0117H213.785C214.449 42.0117 215 41.8945 215.438 41.6602C215.875 41.4258 216.203 41.1016 216.422 40.6875C216.648 40.2734 216.762 39.8008 216.762 39.2695C216.762 38.6992 216.652 38.207 216.434 37.793C216.215 37.3711 215.883 37.0469 215.438 36.8203C214.992 36.5938 214.43 36.4805 213.75 36.4805H210.773V51H207.551V33.9375ZM217.184 51L213.234 43.3594L216.645 43.3477L220.641 50.8359V51H217.184Z" fill="#1C1C1C"/>
<path d="M97.7017 59.4155H96.7935L96.7886 58.9419H97.5674C97.7008 58.9419 97.8123 58.9232 97.9019 58.8857C97.9914 58.8483 98.0589 58.7938 98.1045 58.7222C98.1517 58.6506 98.1753 58.5635 98.1753 58.4609C98.1753 58.347 98.1533 58.2542 98.1094 58.1826C98.0671 58.111 98.0003 58.0589 97.9092 58.0264C97.818 57.9922 97.7025 57.9751 97.5625 57.9751H97.0107V61H96.3394V57.4453H97.5625C97.7643 57.4453 97.9442 57.4648 98.1021 57.5039C98.2616 57.5413 98.3966 57.5999 98.5073 57.6797C98.618 57.7594 98.7018 57.8595 98.7588 57.98C98.8174 58.1004 98.8467 58.2437 98.8467 58.4097C98.8467 58.5562 98.8125 58.6912 98.7441 58.8149C98.6774 58.937 98.5741 59.0363 98.4341 59.1128C98.2957 59.1893 98.12 59.2332 97.9067 59.2446L97.7017 59.4155ZM97.6724 61H96.5957L96.8765 60.4727H97.6724C97.8058 60.4727 97.9157 60.4507 98.002 60.4067C98.0898 60.3628 98.1549 60.3026 98.1973 60.2261C98.2412 60.1479 98.2632 60.0584 98.2632 59.9575C98.2632 59.8468 98.2437 59.7508 98.2046 59.6694C98.1672 59.5881 98.1069 59.5254 98.0239 59.4814C97.9425 59.4375 97.8351 59.4155 97.7017 59.4155H97.0034L97.0083 58.9419H97.897L98.0508 59.125C98.2559 59.1266 98.4227 59.1673 98.5513 59.2471C98.6815 59.3268 98.7775 59.4294 98.8394 59.5547C98.9012 59.68 98.9321 59.8151 98.9321 59.96C98.9321 60.1878 98.8825 60.3791 98.7832 60.5337C98.6855 60.6883 98.5423 60.8047 98.3535 60.8828C98.1663 60.9609 97.9393 61 97.6724 61ZM104.692 57.4453L105.473 59.103L106.259 57.4453H106.996L105.815 59.6987V61H105.133V59.6987L103.949 57.4453H104.692ZM120.478 59.8306H121.149C121.131 60.0682 121.065 60.279 120.951 60.4629C120.838 60.6452 120.679 60.7884 120.475 60.8926C120.272 60.9967 120.025 61.0488 119.736 61.0488C119.513 61.0488 119.312 61.0098 119.133 60.9316C118.955 60.8519 118.803 60.7388 118.676 60.5923C118.551 60.4442 118.455 60.2668 118.388 60.0601C118.321 59.8517 118.288 59.6182 118.288 59.3594V59.0884C118.288 58.8296 118.322 58.596 118.39 58.3877C118.459 58.1794 118.556 58.002 118.683 57.8555C118.812 57.7074 118.966 57.5934 119.145 57.5137C119.325 57.4339 119.527 57.394 119.75 57.394C120.04 57.394 120.285 57.4478 120.485 57.5552C120.685 57.661 120.841 57.8066 120.951 57.9922C121.062 58.1777 121.129 58.391 121.152 58.6318H120.48C120.467 58.4821 120.435 58.3551 120.383 58.251C120.332 58.1468 120.256 58.0679 120.153 58.0142C120.052 57.9588 119.918 57.9312 119.75 57.9312C119.62 57.9312 119.505 57.9556 119.406 58.0044C119.308 58.0532 119.227 58.1265 119.162 58.2241C119.097 58.3201 119.048 58.4406 119.015 58.5854C118.983 58.7287 118.967 58.8947 118.967 59.0835V59.3594C118.967 59.54 118.981 59.702 119.011 59.8452C119.04 59.9884 119.085 60.1097 119.147 60.209C119.209 60.3083 119.289 60.384 119.387 60.436C119.484 60.4881 119.601 60.5142 119.736 60.5142C119.9 60.5142 120.033 60.4881 120.136 60.436C120.24 60.384 120.319 60.3075 120.373 60.2065C120.428 60.1056 120.463 59.9803 120.478 59.8306ZM127.983 57.9849L126.97 61H126.259L127.587 57.4453H128.041L127.983 57.9849ZM128.83 61L127.812 57.9849L127.751 57.4453H128.207L129.543 61H128.83ZM128.784 59.6792V60.209H126.877V59.6792H128.784ZM136.669 60.0771C136.669 60.0088 136.659 59.9478 136.638 59.894C136.618 59.8387 136.582 59.7891 136.528 59.7451C136.476 59.6995 136.402 59.6556 136.306 59.6133C136.211 59.5693 136.089 59.5238 135.939 59.4766C135.773 59.4245 135.619 59.3659 135.476 59.3008C135.332 59.2357 135.206 59.16 135.097 59.0737C134.99 58.9875 134.906 58.8882 134.846 58.7759C134.785 58.6619 134.755 58.5301 134.755 58.3804C134.755 58.2339 134.786 58.1004 134.848 57.98C134.912 57.8595 135.001 57.7562 135.117 57.6699C135.232 57.582 135.368 57.5145 135.524 57.4673C135.682 57.4201 135.856 57.3965 136.047 57.3965C136.311 57.3965 136.538 57.4445 136.73 57.5405C136.924 57.6366 137.074 57.7668 137.18 57.9312C137.285 58.0955 137.338 58.2803 137.338 58.4854H136.669C136.669 58.3747 136.646 58.277 136.599 58.1924C136.553 58.1077 136.483 58.041 136.389 57.9922C136.296 57.9434 136.179 57.9189 136.037 57.9189C135.9 57.9189 135.786 57.9393 135.695 57.98C135.606 58.0207 135.538 58.076 135.493 58.146C135.449 58.216 135.427 58.2941 135.427 58.3804C135.427 58.4455 135.442 58.5041 135.473 58.5562C135.504 58.6066 135.55 58.6546 135.612 58.7002C135.674 58.7441 135.751 58.7856 135.842 58.8247C135.935 58.8621 136.042 58.8996 136.164 58.937C136.359 58.9956 136.53 59.0607 136.677 59.1323C136.825 59.2039 136.948 59.2853 137.045 59.3765C137.145 59.4676 137.219 59.5701 137.268 59.6841C137.318 59.798 137.343 59.9274 137.343 60.0723C137.343 60.2253 137.313 60.362 137.253 60.4824C137.193 60.6029 137.106 60.7054 136.994 60.79C136.882 60.8747 136.747 60.939 136.589 60.9829C136.433 61.0269 136.258 61.0488 136.064 61.0488C135.891 61.0488 135.721 61.026 135.551 60.9805C135.384 60.9333 135.231 60.8633 135.095 60.7705C134.958 60.6761 134.849 60.5573 134.768 60.4141C134.686 60.2692 134.646 60.0999 134.646 59.9062H135.319C135.319 60.0186 135.337 60.1146 135.373 60.1943C135.41 60.2725 135.463 60.3368 135.529 60.3872C135.598 60.436 135.677 60.4718 135.769 60.4946C135.86 60.5174 135.958 60.5288 136.064 60.5288C136.201 60.5288 136.313 60.5101 136.401 60.4727C136.49 60.4336 136.557 60.3799 136.601 60.3115C136.647 60.2432 136.669 60.165 136.669 60.0771ZM144.287 57.4453V61H143.618V57.4453H144.287ZM145.39 57.4453V57.9751H142.526V57.4453H145.39ZM151.452 57.4453V61H150.781V57.4453H151.452ZM159.934 57.4453V61H159.26L157.749 58.5342V61H157.077V57.4453H157.749L159.265 59.9136V57.4453H159.934ZM168.291 59.1616V60.5459C168.239 60.6126 168.157 60.6851 168.044 60.7632C167.934 60.8413 167.789 60.9089 167.61 60.9658C167.431 61.0212 167.211 61.0488 166.951 61.0488C166.724 61.0488 166.518 61.0114 166.33 60.9365C166.143 60.86 165.982 60.7485 165.847 60.6021C165.712 60.4556 165.608 60.2765 165.535 60.0649C165.461 59.8534 165.425 59.6117 165.425 59.3398V59.1055C165.425 58.8337 165.459 58.592 165.527 58.3804C165.597 58.1688 165.697 57.9897 165.825 57.8433C165.955 57.6968 166.111 57.5853 166.291 57.5088C166.474 57.4323 166.677 57.394 166.902 57.394C167.203 57.394 167.45 57.4437 167.644 57.543C167.839 57.6423 167.989 57.779 168.093 57.9531C168.197 58.1257 168.262 58.3242 168.288 58.5488H167.634C167.616 58.4251 167.58 58.3169 167.527 58.2241C167.473 58.1297 167.397 58.0565 167.297 58.0044C167.2 57.9507 167.073 57.9238 166.916 57.9238C166.785 57.9238 166.668 57.9499 166.567 58.002C166.466 58.054 166.382 58.1297 166.313 58.229C166.245 58.3283 166.193 58.4512 166.157 58.5977C166.123 58.7441 166.106 58.9118 166.106 59.1006V59.3398C166.106 59.5303 166.125 59.6995 166.164 59.8477C166.204 59.9941 166.26 60.1178 166.333 60.2188C166.408 60.318 166.5 60.3937 166.609 60.4458C166.719 60.4963 166.845 60.5215 166.985 60.5215C167.112 60.5215 167.217 60.5109 167.3 60.4897C167.384 60.467 167.452 60.4401 167.502 60.4092C167.553 60.3783 167.592 60.3481 167.62 60.3188V59.6523H166.914V59.1616H168.291ZM181.831 60.0771C181.831 60.0088 181.821 59.9478 181.799 59.894C181.78 59.8387 181.743 59.7891 181.69 59.7451C181.637 59.6995 181.563 59.6556 181.467 59.6133C181.373 59.5693 181.251 59.5238 181.101 59.4766C180.935 59.4245 180.781 59.3659 180.637 59.3008C180.494 59.2357 180.368 59.16 180.259 59.0737C180.151 58.9875 180.068 58.8882 180.007 58.7759C179.947 58.6619 179.917 58.5301 179.917 58.3804C179.917 58.2339 179.948 58.1004 180.01 57.98C180.073 57.8595 180.163 57.7562 180.278 57.6699C180.394 57.582 180.53 57.5145 180.686 57.4673C180.844 57.4201 181.018 57.3965 181.209 57.3965C181.472 57.3965 181.7 57.4445 181.892 57.5405C182.086 57.6366 182.236 57.7668 182.341 57.9312C182.447 58.0955 182.5 58.2803 182.5 58.4854H181.831C181.831 58.3747 181.808 58.277 181.76 58.1924C181.715 58.1077 181.645 58.041 181.55 57.9922C181.458 57.9434 181.34 57.9189 181.199 57.9189C181.062 57.9189 180.948 57.9393 180.857 57.98C180.768 58.0207 180.7 58.076 180.654 58.146C180.61 58.216 180.588 58.2941 180.588 58.3804C180.588 58.4455 180.604 58.5041 180.635 58.5562C180.666 58.6066 180.712 58.6546 180.774 58.7002C180.836 58.7441 180.912 58.7856 181.004 58.8247C181.096 58.8621 181.204 58.8996 181.326 58.937C181.521 58.9956 181.692 59.0607 181.838 59.1323C181.987 59.2039 182.109 59.2853 182.207 59.3765C182.306 59.4676 182.38 59.5701 182.429 59.6841C182.48 59.798 182.505 59.9274 182.505 60.0723C182.505 60.2253 182.475 60.362 182.415 60.4824C182.354 60.6029 182.268 60.7054 182.156 60.79C182.044 60.8747 181.908 60.939 181.751 60.9829C181.594 61.0269 181.419 61.0488 181.226 61.0488C181.053 61.0488 180.882 61.026 180.713 60.9805C180.545 60.9333 180.393 60.8633 180.256 60.7705C180.12 60.6761 180.011 60.5573 179.929 60.4141C179.848 60.2692 179.807 60.0999 179.807 59.9062H180.481C180.481 60.0186 180.499 60.1146 180.535 60.1943C180.572 60.2725 180.624 60.3368 180.691 60.3872C180.759 60.436 180.839 60.4718 180.93 60.4946C181.021 60.5174 181.12 60.5288 181.226 60.5288C181.362 60.5288 181.475 60.5101 181.563 60.4727C181.652 60.4336 181.719 60.3799 181.763 60.3115C181.808 60.2432 181.831 60.165 181.831 60.0771ZM189.448 57.4453V61H188.779V57.4453H189.448ZM190.552 57.4453V57.9751H187.688V57.4453H190.552ZM197.876 57.4453H198.548V59.8062C198.548 60.078 198.489 60.3066 198.372 60.4922C198.255 60.6761 198.095 60.8153 197.893 60.9097C197.692 61.0024 197.462 61.0488 197.205 61.0488C196.944 61.0488 196.713 61.0024 196.509 60.9097C196.306 60.8153 196.146 60.6761 196.031 60.4922C195.915 60.3066 195.857 60.078 195.857 59.8062V57.4453H196.529V59.8062C196.529 59.9722 196.556 60.1081 196.612 60.2139C196.667 60.318 196.745 60.3953 196.846 60.4458C196.947 60.4963 197.067 60.5215 197.205 60.5215C197.345 60.5215 197.464 60.4963 197.564 60.4458C197.665 60.3953 197.742 60.318 197.796 60.2139C197.849 60.1081 197.876 59.9722 197.876 59.8062V57.4453ZM205.147 61H204.38L204.385 60.4727H205.147C205.354 60.4727 205.527 60.4271 205.667 60.3359C205.807 60.2432 205.913 60.1105 205.984 59.938C206.056 59.7638 206.092 59.5555 206.092 59.313V59.1299C206.092 58.9427 206.071 58.7775 206.031 58.6343C205.99 58.491 205.93 58.3706 205.85 58.2729C205.772 58.1753 205.675 58.1012 205.559 58.0508C205.444 58.0003 205.311 57.9751 205.162 57.9751H204.366V57.4453H205.162C205.399 57.4453 205.616 57.4852 205.811 57.5649C206.008 57.6447 206.178 57.7594 206.321 57.9092C206.466 58.0573 206.577 58.2347 206.653 58.4414C206.731 58.6481 206.77 58.8792 206.77 59.1348V59.313C206.77 59.5669 206.731 59.798 206.653 60.0063C206.577 60.2131 206.466 60.3905 206.321 60.5386C206.178 60.6867 206.007 60.8006 205.808 60.8804C205.61 60.9601 205.389 61 205.147 61ZM204.756 57.4453V61H204.085V57.4453H204.756ZM212.957 57.4453V61H212.286V57.4453H212.957ZM221.461 59.1323V59.3154C221.461 59.584 221.425 59.8257 221.353 60.0405C221.282 60.2537 221.18 60.4352 221.048 60.585C220.916 60.7347 220.759 60.8494 220.577 60.9292C220.394 61.009 220.192 61.0488 219.969 61.0488C219.749 61.0488 219.547 61.009 219.363 60.9292C219.181 60.8494 219.023 60.7347 218.89 60.585C218.756 60.4352 218.653 60.2537 218.58 60.0405C218.506 59.8257 218.47 59.584 218.47 59.3154V59.1323C218.47 58.8621 218.506 58.6204 218.58 58.4072C218.653 58.194 218.755 58.0125 218.887 57.8628C219.019 57.7114 219.176 57.5959 219.358 57.5161C219.542 57.4364 219.744 57.3965 219.964 57.3965C220.187 57.3965 220.39 57.4364 220.572 57.5161C220.754 57.5959 220.911 57.7114 221.043 57.8628C221.177 58.0125 221.279 58.194 221.351 58.4072C221.424 58.6204 221.461 58.8621 221.461 59.1323ZM220.782 59.3154V59.1274C220.782 58.9338 220.764 58.7637 220.728 58.6172C220.692 58.4691 220.639 58.3446 220.569 58.2437C220.499 58.1427 220.413 58.0671 220.311 58.0166C220.208 57.9645 220.093 57.9385 219.964 57.9385C219.834 57.9385 219.718 57.9645 219.617 58.0166C219.518 58.0671 219.433 58.1427 219.363 58.2437C219.293 58.3446 219.24 58.4691 219.202 58.6172C219.166 58.7637 219.149 58.9338 219.149 59.1274V59.3154C219.149 59.5075 219.166 59.6776 219.202 59.8257C219.24 59.9738 219.293 60.0991 219.363 60.2017C219.435 60.3026 219.521 60.3791 219.622 60.4312C219.723 60.4832 219.839 60.5093 219.969 60.5093C220.099 60.5093 220.215 60.4832 220.316 60.4312C220.416 60.3791 220.501 60.3026 220.569 60.2017C220.639 60.0991 220.692 59.9738 220.728 59.8257C220.764 59.6776 220.782 59.5075 220.782 59.3154Z" fill="#414141"/>
<g clip-path="url(#clip0_560_2332)">
<path d="M77.0001 74.9999L61.346 73.9512C57.6235 73.9981 54.6754 72.4707 52.8861 69.3912L37.706 44.4688L29.7151 30.7146C28.9765 29.4375 28.5582 28.0022 28.4956 26.5302C28.4329 25.0583 28.7278 23.593 29.3553 22.2583L29.8665 21.3799C30.0533 21.0645 30.2562 20.759 30.4745 20.4644C30.5465 20.3657 30.6308 20.2695 30.7078 20.1708C31.3867 19.3927 32.1909 18.7323 33.0877 18.2164C35.2011 17.0046 37.7121 16.677 40.0683 17.3059C42.4246 17.9348 44.4331 19.4686 45.6522 21.5699L49.7543 28.6296L59.2341 44.9623L77.0001 74.9999Z" fill="url(#paint0_linear_560_2332)"/>
<path d="M49.7543 28.6295C47.6771 27.9484 46.3644 29.6362 46.0318 30.11C46.0012 30.1519 45.973 30.1956 45.9474 30.2408V30.221C45.8953 30.3198 45.8482 30.4234 45.7961 30.5196L37.701 44.4613C37.701 44.4613 23.9354 69.8772 23.9155 69.9068C22.0667 72.6433 20.0889 73.3885 15.7882 73.9363L-0.00488281 74.9925L29.7747 21.5747C30.733 19.9254 32.1861 18.6155 33.9305 17.8283C35.6749 17.0411 37.6233 16.8162 39.5027 17.1849C39.6788 17.217 39.8551 17.2565 40.0263 17.3009C40.1975 17.3453 40.4035 17.4119 40.5871 17.4712C42.7263 18.173 44.5299 19.6351 45.6521 21.5772L46.1212 22.389L49.7543 28.6295Z" fill="url(#paint1_linear_560_2332)"/>
<path d="M45.9524 30.2359V30.2631C45.9524 30.2631 47.3372 27.8523 49.7543 28.6468L45.6522 21.5773C44.4327 19.4765 42.4241 17.9431 40.0681 17.3143C37.712 16.6855 35.2012 17.0126 33.0877 18.2238C32.1909 18.7406 31.3866 19.4018 30.7078 20.1806C30.6308 20.2769 30.5465 20.3756 30.4745 20.4718C30.2586 20.7654 30.0551 21.0689 29.8665 21.3873L29.3553 22.2657C28.7278 23.6008 28.4329 25.0665 28.4956 26.5388C28.5582 28.0112 28.9765 29.4469 29.7151 30.7245L37.706 44.4762L45.801 30.5345C45.8532 30.4383 45.9003 30.3346 45.9524 30.2359Z" fill="url(#paint2_linear_560_2332)"/>
</g>
<defs>
<linearGradient id="paint0_linear_560_2332" x1="28.4867" y1="46.0036" x2="77.0001" y2="46.0036" gradientUnits="userSpaceOnUse">
<stop offset="0.13" stop-color="#008771"/>
<stop offset="0.54" stop-color="#00A086"/>
<stop offset="0.93" stop-color="#00B497"/>
</linearGradient>
<linearGradient id="paint1_linear_560_2332" x1="12.3189" y1="30.189" x2="32.8052" y2="65.8721" gradientUnits="userSpaceOnUse">
<stop stop-color="#00B497"/>
<stop offset="0.16" stop-color="#06B699"/>
<stop offset="0.37" stop-color="#16BA9F"/>
<stop offset="0.6" stop-color="#30C1A8"/>
<stop offset="0.84" stop-color="#55CBB5"/>
<stop offset="1" stop-color="#70D3BF"/>
</linearGradient>
<linearGradient id="paint2_linear_560_2332" x1="33.0827" y1="18.2263" x2="45.565" y2="39.9653" gradientUnits="userSpaceOnUse">
<stop stop-color="#5AE5BB"/>
<stop offset="0.29" stop-color="#36D1AC"/>
<stop offset="0.57" stop-color="#18C1A1"/>
<stop offset="0.82" stop-color="#06B79A"/>
<stop offset="1" stop-color="#00B497"/>
</linearGradient>
<clipPath id="clip0_560_2332">
<rect width="77" height="58" fill="white" transform="translate(0 17)"/>
</clipPath>
</defs>
</svg>
