<svg width="267" height="38" viewBox="0 0 267 38" fill="none" xmlns="http://www.w3.org/2000/svg">
<g clip-path="url(#clip0_560_2355)">
<path d="M69.4686 27.5401C69.6222 27.6944 69.7083 27.9031 69.7083 28.1207C69.7083 28.3382 69.6222 28.5469 69.4686 28.7012C68.6597 29.4645 67.7079 30.0607 66.6677 30.4558C65.6276 30.8509 64.5196 31.0371 63.4072 31.0037C58.0911 31.0037 55.0703 28.1256 55.0703 22.5482V16.802C55.0703 11.2643 58.0513 8.3962 63.2781 8.3962C65.3649 8.27818 67.4206 8.94366 69.0414 10.262C69.1244 10.3277 69.1936 10.4091 69.245 10.5016C69.2965 10.594 69.3291 10.6958 69.3411 10.8009C69.3531 10.906 69.3442 11.0124 69.3149 11.1141C69.2857 11.2157 69.2366 11.3106 69.1705 11.3933L68.2464 12.5247C68.1426 12.684 67.9802 12.7962 67.7943 12.837C67.6085 12.8779 67.4139 12.8441 67.2527 12.743C67.1932 12.7087 67.1396 12.6652 67.0938 12.614C66.0966 11.8177 64.8412 11.4151 63.5662 11.4826C60.3368 11.4826 58.7668 13.2293 58.7668 17.1494V22.1115C58.7668 26.0812 60.4163 27.7783 63.7351 27.7783C64.4346 27.7971 65.1308 27.6759 65.7827 27.422C66.4345 27.168 67.029 26.7864 67.531 26.2996C67.6438 26.1493 67.8113 26.0495 67.9972 26.0216C68.1832 25.9937 68.3727 26.0401 68.5246 26.1507C68.5941 26.2035 68.6545 26.2671 68.7035 26.3393L69.4686 27.5401Z" fill="black"/>
<path d="M87.3553 16.8612V22.8158C87.3553 28.1749 84.4737 31.0529 79.0681 31.0529C74.0997 31.0529 71.2578 28.6115 71.2578 24.3441C71.2578 20.0767 74.0004 17.7643 79.0184 17.7643H83.7284V17.2383C83.7284 13.2686 82.1187 11.5716 78.76 11.5716C77.1721 11.5911 75.6431 12.1752 74.4475 13.219C74.0103 13.616 73.6128 13.616 73.265 13.1297L72.3509 11.8693C72.2022 11.7205 72.1187 11.5188 72.1187 11.3086C72.1187 11.0984 72.2022 10.8967 72.3509 10.7479L72.4303 10.6883C74.2841 9.17718 76.6162 8.37499 79.0085 8.4256C84.4339 8.40575 87.3553 11.2838 87.3553 16.8612ZM83.7384 22.4188V20.7118H79.4656C76.5839 20.7118 74.8847 21.9325 74.8847 24.3342C74.8847 26.7359 76.415 27.8573 79.078 27.8573C82.2578 27.8871 83.7384 26.1404 83.7384 22.4188Z" fill="black"/>
<path d="M97.8871 31.0239C94.4788 31.0239 92.0344 30.2399 90.0768 28.5032C89.9988 28.435 89.935 28.3521 89.8893 28.2592C89.8435 28.1663 89.8166 28.0652 89.8101 27.9619C89.8037 27.8585 89.8178 27.7549 89.8516 27.6571C89.8854 27.5592 89.9383 27.469 90.0073 27.3917L90.9314 26.171C91.0369 26.0137 91.1992 25.9031 91.3843 25.8624C91.5695 25.8218 91.7632 25.8541 91.9251 25.9526C91.9834 25.9845 92.0342 26.0285 92.0741 26.0816C93.6001 27.3231 95.5223 27.9748 97.4896 27.9176C100.153 27.9176 101.683 26.7366 101.683 24.6029C101.683 22.6875 100.5 21.7745 96.9233 21.2485C91.8555 20.5042 90.1166 18.6285 90.1166 14.8772C90.1166 10.9571 93.0976 8.42639 97.7977 8.42639C100.046 8.37331 102.257 9.01447 104.127 10.2624C104.3 10.371 104.424 10.5427 104.472 10.741C104.521 10.9392 104.49 11.1485 104.386 11.3243L104.296 11.4434L103.472 12.664C103.164 13.0908 102.776 13.1404 102.289 12.7831C101.064 11.9671 99.618 11.5447 98.1455 11.5724C95.2638 11.5724 93.7336 12.7534 93.7336 14.8871C93.7336 16.6238 94.8664 17.4972 98.3144 17.9834C103.462 18.6781 105.27 20.6828 105.27 24.6029C105.27 28.523 102.458 31.0239 97.8871 31.0239Z" fill="black"/>
<path d="M119.996 29.1579C120.077 29.3352 120.088 29.5366 120.025 29.7211C119.962 29.9056 119.831 30.0591 119.659 30.1504C118.469 30.7407 117.15 31.0239 115.823 30.9741C111.371 30.9741 109.106 28.622 109.106 24.0966V12.0683H106.83C106.631 12.0877 106.433 12.0276 106.278 11.9011C106.124 11.7746 106.026 11.5921 106.005 11.3935C105.996 11.3444 105.996 11.2938 106.005 11.2446V9.756C105.986 9.55734 106.046 9.3591 106.173 9.20471C106.3 9.05031 106.482 8.95235 106.681 8.93229H109.106V3.97016C109.095 3.87101 109.104 3.77067 109.132 3.67494C109.16 3.57921 109.207 3.49 109.269 3.41247C109.332 3.33494 109.41 3.27063 109.498 3.22326C109.586 3.17589 109.682 3.14641 109.781 3.13651H111.898C112.096 3.11974 112.293 3.18084 112.447 3.30685C112.601 3.43285 112.7 3.61383 112.723 3.81137V8.89259H118.685C118.784 8.8816 118.884 8.89038 118.98 8.91843C119.076 8.94648 119.166 8.99324 119.243 9.05601C119.321 9.11877 119.385 9.19629 119.433 9.28408C119.48 9.37187 119.51 9.46818 119.519 9.56744V11.195C119.529 11.2941 119.519 11.3942 119.489 11.4894C119.46 11.5845 119.412 11.673 119.348 11.7495C119.285 11.8261 119.206 11.8893 119.118 11.9355C119.03 11.9817 118.933 12.01 118.834 12.0187H112.753V24.0072C112.753 26.528 113.975 27.838 116.24 27.838C117.002 27.8551 117.756 27.6738 118.426 27.312C118.993 27.0044 119.42 27.1433 119.559 27.6594L119.996 29.1579Z" fill="black"/>
<path d="M122.004 2.66013C121.994 2.05378 122.224 1.46792 122.645 1.03081C123.066 0.593706 123.643 0.340967 124.25 0.327934C124.552 0.320024 124.852 0.371915 125.134 0.4806C125.415 0.589285 125.673 0.752614 125.891 0.961155C126.109 1.1697 126.283 1.41931 126.404 1.69559C126.525 1.97188 126.59 2.26935 126.595 2.57082V2.67006C126.579 3.27726 126.324 3.85369 125.885 4.27379C125.446 4.69389 124.858 4.92362 124.25 4.91295C123.659 4.89787 123.097 4.65673 122.679 4.23933C122.261 3.82193 122.019 3.26016 122.004 2.67006V2.66013ZM123.316 30.4977C123.117 30.5171 122.919 30.457 122.764 30.3305C122.609 30.204 122.511 30.0214 122.491 29.8228C122.481 29.7737 122.481 29.7231 122.491 29.674V9.75598C122.472 9.55733 122.532 9.35909 122.659 9.20469C122.785 9.0503 122.968 8.95234 123.167 8.93228H125.283C125.482 8.91288 125.681 8.97302 125.835 9.09951C125.99 9.226 126.088 9.40853 126.108 9.60712C126.118 9.65625 126.118 9.70685 126.108 9.75598V29.674C126.119 29.7731 126.11 29.8735 126.082 29.9692C126.054 30.0649 126.007 30.1541 125.945 30.2317C125.882 30.3092 125.804 30.3735 125.716 30.4209C125.628 30.4682 125.532 30.4977 125.432 30.5076H123.316V30.4977Z" fill="black"/>
<path d="M143.17 16.8612C143.17 13.1992 141.769 11.5518 138.718 11.5518C135.667 11.5518 134.266 13.1992 134.266 16.8612V29.6735C134.286 29.8721 134.226 30.0703 134.099 30.2247C133.972 30.3791 133.789 30.4771 133.591 30.4972C133.541 30.5071 133.491 30.5071 133.442 30.4972H131.454C131.255 30.5166 131.057 30.4564 130.902 30.3299C130.748 30.2034 130.65 30.0209 130.629 29.8223C130.62 29.7732 130.62 29.7226 130.629 29.6735V16.4643C130.629 11.2342 133.461 8.40576 138.698 8.40576C143.935 8.40576 146.777 11.2342 146.777 16.4643V29.6635C146.796 29.8622 146.736 30.0604 146.609 30.2148C146.483 30.3692 146.3 30.4672 146.101 30.4872C146.048 30.4972 145.995 30.4972 145.942 30.4872H143.955C143.755 30.5068 143.555 30.4469 143.399 30.3206C143.243 30.1944 143.142 30.0118 143.12 29.8124V16.8612H143.17Z" fill="black"/>
<path d="M166.997 16.6431V30.279C166.997 35.0724 163.897 37.9901 158.789 37.9901C156.22 38.0878 153.705 37.2363 151.724 35.5984C151.639 35.5373 151.567 35.4601 151.512 35.3711C151.457 35.2821 151.42 35.1831 151.404 35.0798C151.387 34.9765 151.391 34.8709 151.415 34.7692C151.44 34.6674 151.484 34.5715 151.546 34.4869L151.595 34.4174L152.43 33.2364C152.463 33.157 152.511 33.0849 152.571 33.0243C152.632 32.9637 152.705 32.9158 152.784 32.8834C152.864 32.8511 152.949 32.8349 153.035 32.8359C153.121 32.8369 153.206 32.8549 153.285 32.8891C153.395 32.9355 153.491 33.0109 153.563 33.1074C154.969 34.2768 156.752 34.8974 158.581 34.8541C161.721 34.8541 163.38 33.1074 163.38 30.011V28.1453H163.291C162.675 28.8889 161.89 29.4749 161.002 29.8546C160.113 30.2344 159.147 30.3969 158.183 30.3286C153.215 30.3286 150.542 27.4506 150.542 22.0915V16.6331C150.542 11.274 153.424 8.396 158.75 8.396C164.076 8.396 166.997 11.284 166.997 16.6431ZM163.37 21.7044V17.0003C163.37 13.2887 161.939 11.5519 158.75 11.5519C155.56 11.5519 154.169 13.2887 154.169 17.0003V21.7044C154.169 25.4459 155.6 27.1925 158.75 27.1925C161.9 27.1925 163.37 25.3963 163.37 21.7044Z" fill="black"/>
<path d="M178.078 31.0235C174.679 31.0235 172.235 30.2394 170.267 28.5027C170.188 28.4344 170.123 28.3509 170.076 28.2571C170.03 28.1634 170.002 28.0612 169.996 27.9566C169.989 27.8521 170.004 27.7473 170.038 27.6485C170.073 27.5497 170.127 27.4588 170.198 27.3813L171.122 26.1606C171.229 26.0052 171.391 25.8962 171.576 25.8557C171.76 25.8152 171.953 25.8461 172.116 25.9422C172.175 25.9765 172.229 26.0201 172.275 26.0713C173.796 27.3136 175.716 27.9655 177.68 27.9072C180.343 27.9072 181.874 26.7263 181.874 24.5925C181.874 22.6772 180.691 21.7641 177.114 21.2381C172.046 20.4938 170.307 18.6181 170.307 14.8668C170.307 10.9467 173.288 8.416 177.988 8.416C180.243 8.35588 182.461 8.99373 184.338 10.2421C184.513 10.3489 184.638 10.5207 184.687 10.7197C184.735 10.9187 184.703 11.1288 184.596 11.304L184.507 11.423L183.682 12.6437C183.374 13.0705 182.986 13.1201 182.5 12.7628C181.28 11.9507 179.842 11.5284 178.376 11.5521C175.494 11.5521 173.964 12.7331 173.964 14.8668C173.964 16.6035 175.097 17.4769 178.545 17.9631C183.692 18.6578 185.5 20.6625 185.5 24.5826C185.5 28.5027 182.659 31.0235 178.078 31.0235Z" fill="black"/>
<path d="M200.235 29.1579C200.316 29.3352 200.326 29.5366 200.264 29.7211C200.201 29.9056 200.07 30.0591 199.897 30.1504H199.848C198.659 30.7431 197.34 31.0264 196.012 30.9741C191.56 30.9741 189.295 28.622 189.295 24.0966V12.0684H186.98C186.781 12.0877 186.582 12.0276 186.428 11.9011C186.273 11.7746 186.175 11.5921 186.155 11.3935C186.145 11.3444 186.145 11.2938 186.155 11.2446V9.756C186.135 9.55734 186.196 9.3591 186.322 9.20471C186.449 9.05031 186.632 8.95235 186.831 8.93229H189.305V3.97016C189.294 3.87101 189.303 3.77067 189.331 3.67494C189.359 3.57921 189.406 3.49 189.468 3.41247C189.531 3.33494 189.609 3.27063 189.697 3.22326C189.785 3.17589 189.881 3.14641 189.981 3.13651H192.097C192.295 3.11974 192.493 3.18084 192.647 3.30685C192.8 3.43285 192.899 3.61383 192.922 3.81137V8.89259H198.884C198.983 8.8816 199.084 8.89038 199.179 8.91843C199.275 8.94648 199.365 8.99324 199.442 9.05601C199.52 9.11877 199.584 9.19629 199.632 9.28408C199.679 9.37187 199.709 9.46818 199.719 9.56744V11.195C199.728 11.2941 199.718 11.3942 199.689 11.4894C199.659 11.5845 199.611 11.673 199.548 11.7495C199.484 11.8261 199.406 11.8893 199.317 11.9355C199.229 11.9817 199.132 12.01 199.033 12.0187H192.872V24.0072C192.872 26.528 194.094 27.838 196.36 27.838C197.122 27.8551 197.875 27.6738 198.546 27.312C199.112 27.0044 199.54 27.1433 199.679 27.6594L200.235 29.1579Z" fill="black"/>
<path d="M218.221 23.0938C218.221 28.2841 215.428 31.0332 210.271 31.0332C205.114 31.0332 202.322 28.2941 202.322 23.0938V9.75555C202.303 9.5569 202.363 9.35865 202.489 9.20426C202.616 9.04986 202.799 8.95191 202.998 8.93184H205.114C205.313 8.91244 205.512 8.97258 205.666 9.09907C205.821 9.22557 205.919 9.4081 205.939 9.60668C205.949 9.65581 205.949 9.70642 205.939 9.75555V22.7861C205.939 26.3191 207.3 27.8872 210.301 27.8872C213.302 27.8872 214.673 26.3191 214.673 22.7861V9.75555C214.662 9.65694 214.671 9.55715 214.699 9.46202C214.728 9.36689 214.775 9.27835 214.837 9.20161C214.9 9.12487 214.978 9.06147 215.066 9.01514C215.154 8.96881 215.25 8.94049 215.349 8.93184H217.336C217.436 8.92085 217.536 8.92963 217.632 8.95768C217.728 8.98573 217.817 9.03249 217.895 9.09526C217.972 9.15802 218.037 9.23553 218.084 9.32332C218.132 9.41111 218.161 9.50742 218.171 9.60668V23.0938H218.221Z" fill="black"/>
<path d="M237.599 0.000153673C237.798 -0.0192414 237.996 0.0408944 238.151 0.167388C238.306 0.293881 238.404 0.476411 238.424 0.674996V22.7863C238.424 28.1454 235.542 31.0234 230.176 31.0234C224.81 31.0234 221.979 28.1454 221.979 22.7863V16.6431C221.979 11.284 224.642 8.406 229.61 8.406C230.574 8.33773 231.54 8.50023 232.428 8.87997C233.317 9.25972 234.101 9.84574 234.717 10.5893H234.807V0.823862C234.787 0.625209 234.848 0.426969 234.974 0.272573C235.101 0.118176 235.284 0.0202193 235.483 0.000153673H237.599ZM234.807 17.0302C234.807 13.3781 233.277 11.5421 230.176 11.5421C227.076 11.5421 225.595 13.2887 225.595 17.0302V22.4191C225.595 26.1208 227.036 27.8675 230.176 27.8675C233.316 27.8675 234.807 26.1208 234.807 22.4191V17.0302Z" fill="black"/>
<path d="M242.488 2.65977C242.512 2.07688 242.757 1.52491 243.174 1.11629C243.591 0.707677 244.148 0.473152 244.732 0.460501C245.316 0.447849 245.883 0.658017 246.317 1.04819C246.751 1.43837 247.02 1.97921 247.069 2.56052V2.65977C247.031 3.24042 246.773 3.7848 246.348 4.18252C245.922 4.58023 245.361 4.80152 244.779 4.80152C244.196 4.80152 243.635 4.58023 243.21 4.18252C242.785 3.7848 242.527 3.24042 242.488 2.65977ZM243.8 30.4973C243.6 30.5168 243.4 30.457 243.244 30.3307C243.088 30.2044 242.988 30.0219 242.965 29.8225V9.75561C242.949 9.55596 243.011 9.35776 243.139 9.2037C243.268 9.04963 243.451 8.95203 243.651 8.93191H245.757C245.958 8.91515 246.158 8.97729 246.314 9.10515C246.47 9.23301 246.57 9.41651 246.592 9.61668V29.6736C246.612 29.8749 246.55 30.0756 246.422 30.2319C246.293 30.3882 246.108 30.4872 245.907 30.5072H243.8V30.4973Z" fill="black"/>
<path d="M267.002 16.6429V22.8356C267.002 28.1451 264.12 31.0232 258.754 31.0232C253.389 31.0232 250.557 28.1451 250.557 22.8356V16.6429C250.557 11.2838 253.438 8.40576 258.754 8.40576C264.071 8.40576 267.002 11.2838 267.002 16.6429ZM263.385 17.0299C263.385 13.2885 261.944 11.5418 258.754 11.5418C255.565 11.5418 254.174 13.2885 254.174 17.0299V22.4188C254.174 26.1206 255.614 27.8672 258.754 27.8672C261.894 27.8672 263.385 26.1206 263.385 22.4188V17.0299Z" fill="black"/>
<path d="M25.1008 5.96479C31.9969 0.814096 39.1215 2.58061 43.1856 8.01911C47.2497 13.4576 46.8622 20.6725 39.9562 25.8232L23.9481 37.7323C23.856 37.8117 23.749 37.872 23.6333 37.9095C23.5176 37.9471 23.3955 37.9612 23.2743 37.951C23.153 37.9408 23.0351 37.9066 22.9272 37.8503C22.8194 37.794 22.7239 37.7168 22.6464 37.6232L22.5768 37.5339L21.1758 35.6483C21.0166 35.4626 20.9376 35.2214 20.9563 34.9777C20.9749 34.734 21.0896 34.5076 21.2751 34.3482L21.3745 34.2787L37.1143 22.5284C42.2416 18.6976 42.7782 14.063 39.9959 10.3513C37.2137 6.63964 32.5434 5.73653 27.416 9.5673L11.6663 21.3275C11.4804 21.4865 11.2389 21.5654 10.9949 21.5468C10.7509 21.5282 10.5242 21.4136 10.3646 21.2283C10.3381 21.1976 10.3149 21.1644 10.295 21.1291L8.88402 19.2534C8.726 19.0664 8.64876 18.8245 8.66926 18.5807C8.68975 18.337 8.80631 18.1113 8.99332 17.9533L9.08276 17.8838L25.1008 5.96479Z" fill="#02DFA3"/>
<path d="M20.7383 27.3812C13.7826 32.5418 6.70768 30.7653 2.65349 25.3368C-1.4007 19.9082 -1.02311 12.6833 5.87298 7.53265L14.9353 1.22082C15.1253 1.06359 15.3699 0.987868 15.6157 1.01018C15.8615 1.0325 16.0884 1.15104 16.2469 1.33991L16.3165 1.4193L17.7176 3.30491C17.7971 3.39689 17.8574 3.5038 17.895 3.61936C17.9326 3.73492 17.9467 3.85682 17.9365 3.9779C17.9263 4.09898 17.8921 4.21681 17.8357 4.3245C17.7793 4.43218 17.702 4.52754 17.6083 4.60499L17.5188 4.68438L8.71489 10.7878C3.58753 14.6186 3.05096 19.2433 5.83324 22.955C8.61553 26.6666 13.2858 27.5797 18.4131 23.739L34.1629 11.9787C34.35 11.8209 34.5923 11.7438 34.8363 11.7642C35.0804 11.7847 35.3064 11.9011 35.4646 12.0879L35.5341 12.1772L36.9352 14.0628C37.0944 14.2485 37.1734 14.4896 37.1547 14.7334C37.1361 14.9771 37.0214 15.2035 36.8358 15.3629L36.7365 15.4423L20.7383 27.3812Z" fill="#02DFA3"/>
</g>
<defs>
<clipPath id="clip0_560_2355">
<rect width="267" height="38" fill="white"/>
</clipPath>
</defs>
</svg>
