<?xml version="1.0" encoding="utf-8"?>
<!-- Generator: Adobe Illustrator 27.0.0, SVG Export Plug-In . SVG Version: 6.00 Build 0)  -->
<svg version="1.1" id="Layer_1" xmlns="http://www.w3.org/2000/svg" xmlns:xlink="http://www.w3.org/1999/xlink" x="0px" y="0px"
	 viewBox="0 0 242 85" style="enable-background:new 0 0 242 85;" xml:space="preserve">
<style type="text/css">
	.st0{clip-path:url(#SVGID_00000016052607027946083810000018307762910043331748_);}
	.st1{fill:#1C1C1C;}
	.st2{fill:url(#SVGID_00000048493214216953655120000002604758438342665635_);}
	.st3{fill:url(#SVGID_00000095323063088985618280000004585675719599931022_);}
	.st4{fill:url(#SVGID_00000026849464901246453780000001265374575701777326_);}
	.st5{fill:#414141;}
	.st6{font-family:'Raleway-Bold';}
	.st7{font-size:6.06px;}
	.st8{letter-spacing:3.4;}
</style>
<g>
	<g>
		<defs>
			<rect id="SVGID_1_" y="0" width="242" height="85"/>
		</defs>
		<clipPath id="SVGID_00000042731929590183125840000011577900509788761483_">
			<use xlink:href="#SVGID_1_"  style="overflow:visible;"/>
		</clipPath>
		<g style="clip-path:url(#SVGID_00000042731929590183125840000011577900509788761483_);">
			<path class="st1" d="M104.4,36.5L99.6,51h-3.4l6.4-17.1h2.2L104.4,36.5z M108.5,51l-4.9-14.5l-0.3-2.6h2.2l6.4,17.1H108.5z
				 M108.3,44.7v2.5h-9.2v-2.5H108.3z M125.9,47.7l4.3-13.7h3.6l-6,17.1h-2.4L125.9,47.7z M122,33.9l4.2,13.7l0.6,3.3h-2.4l-6-17.1
				L122,33.9L122,33.9z M148.6,36.5L143.7,51h-3.4l6.4-17.1h2.2L148.6,36.5z M152.6,51l-4.9-14.5l-0.3-2.6h2.2L156,51H152.6z
				 M152.4,44.7v2.5h-9.2v-2.5H152.4z M170.9,33.9V51h-3.2V33.9H170.9z M176.2,33.9v2.5h-13.7v-2.5H176.2z M191.1,36.5L186.2,51
				h-3.4l6.4-17.1h2.2L191.1,36.5z M195.2,51l-4.9-14.5l-0.3-2.6h2.2l6.4,17.1H195.2z M194.9,44.7v2.5h-9.2v-2.5H194.9z M207.6,33.9
				h6.2c1.3,0,2.4,0.2,3.3,0.6c0.9,0.4,1.6,1,2.1,1.7c0.5,0.8,0.8,1.7,0.8,2.8c0,0.9-0.2,1.6-0.5,2.3c-0.3,0.6-0.8,1.2-1.3,1.6
				c-0.6,0.4-1.2,0.8-2,1l-1,0.5h-5.5v-2.5h4.1c0.7,0,1.2-0.1,1.7-0.4c0.4-0.2,0.8-0.6,1-1s0.3-0.9,0.3-1.4c0-0.6-0.1-1.1-0.3-1.5
				s-0.6-0.7-1-1c-0.4-0.2-1-0.3-1.7-0.3h-3V51h-3.2L207.6,33.9L207.6,33.9z M217.2,51l-4-7.6h3.4l4,7.5V51H217.2z"/>
			
				<linearGradient id="SVGID_00000035491675374714716100000004014298979424681663_" gradientUnits="userSpaceOnUse" x1="28.4813" y1="801.95" x2="77" y2="801.95" gradientTransform="matrix(1 0 0 1 0 -756)">
				<stop  offset="0.13" style="stop-color:#008771"/>
				<stop  offset="0.54" style="stop-color:#00A086"/>
				<stop  offset="0.93" style="stop-color:#00B497"/>
			</linearGradient>
			<path style="fill:url(#SVGID_00000035491675374714716100000004014298979424681663_);" d="M77,75l-15.7-1c-3.7,0-6.7-1.5-8.5-4.6
				L37.7,44.5l-8-13.8c-0.7-1.3-1.2-2.7-1.2-4.2c-0.1-1.5,0.2-2.9,0.9-4.3l0.5-0.9c0.2-0.3,0.4-0.6,0.6-0.9c0.1-0.1,0.2-0.2,0.2-0.3
				c0.7-0.8,1.5-1.4,2.4-2c2.1-1.2,4.6-1.5,7-0.9s4.4,2.2,5.6,4.3l4.1,7.1L59.2,45L77,75z"/>
			
				<linearGradient id="SVGID_00000062882992078870530910000001897975415547104937_" gradientUnits="userSpaceOnUse" x1="12.449" y1="786.111" x2="32.9318" y2="821.788" gradientTransform="matrix(1 0 0 1 0 -756)">
				<stop  offset="0" style="stop-color:#00B497"/>
				<stop  offset="0.16" style="stop-color:#06B699"/>
				<stop  offset="0.37" style="stop-color:#16BA9F"/>
				<stop  offset="0.6" style="stop-color:#30C1A8"/>
				<stop  offset="0.84" style="stop-color:#55CBB5"/>
				<stop  offset="1" style="stop-color:#70D3BF"/>
			</linearGradient>
			<path style="fill:url(#SVGID_00000062882992078870530910000001897975415547104937_);" d="M49.8,28.6c-2.1-0.7-3.4,1-3.7,1.5
				L46,30.2l0,0c-0.1,0.1-0.1,0.2-0.2,0.3l-8.1,13.9L23.9,69.8c-1.8,2.7-3.8,3.5-8.1,4L0,75l29.8-53.4c1-1.6,2.4-3,4.2-3.7
				c1.7-0.8,3.7-1,5.6-0.6c0.2,0,0.4,0.1,0.5,0.1c0.2,0,0.4,0.1,0.6,0.2c2.1,0.7,3.9,2.2,5.1,4.1l0.5,0.8L49.8,28.6z"/>
			
				<linearGradient id="SVGID_00000040566283548448294160000001871945080752316302_" gradientUnits="userSpaceOnUse" x1="33.164" y1="774.18" x2="45.6454" y2="795.9175" gradientTransform="matrix(1 0 0 1 0 -756)">
				<stop  offset="0" style="stop-color:#5AE5BB"/>
				<stop  offset="0.29" style="stop-color:#36D1AC"/>
				<stop  offset="0.57" style="stop-color:#18C1A1"/>
				<stop  offset="0.82" style="stop-color:#06B79A"/>
				<stop  offset="1" style="stop-color:#00B497"/>
			</linearGradient>
			<path style="fill:url(#SVGID_00000040566283548448294160000001871945080752316302_);" d="M46,30.2L46,30.2c0,0,1.4-2.4,3.8-1.6
				l-4.1-7.1c-1.2-2.1-3.2-3.6-5.6-4.3c-2.4-0.6-4.9-0.3-7,0.9c-0.9,0.5-1.7,1.2-2.4,2c-0.1,0.1-0.2,0.2-0.2,0.3
				c-0.2,0.3-0.4,0.6-0.6,0.9l-0.5,0.9c-0.6,1.3-0.9,2.8-0.9,4.3c0.1,1.5,0.5,2.9,1.2,4.2l8,13.8l8.1-13.9
				C45.9,30.4,45.9,30.3,46,30.2z"/>
		</g>
	</g>
</g>
<g>
	<text transform="matrix(0.8911 0 0 1 95.582 62.2057)" class="st5 st6 st7 st8">BY CASTING STUDIO</text>
</g>
</svg>