<?xml version="1.0" standalone="no"?>
<!DOCTYPE svg PUBLIC "-//W3C//DTD SVG 20010904//EN"
 "http://www.w3.org/TR/2001/REC-SVG-20010904/DTD/svg10.dtd">
<svg version="1.0" xmlns="http://www.w3.org/2000/svg"
 width="154.000000pt" height="154.000000pt" viewBox="0 0 154.000000 154.000000"
 preserveAspectRatio="xMidYMid meet">
<metadata>
Created by potrace 1.14, written by Peter Selinger 2001-2017
</metadata>
<g transform="translate(0.000000,154.000000) scale(0.100000,-0.100000)"
fill="#000000" stroke="none">
<path d="M680 1314 c-41 -18 -69 -42 -81 -69 -5 -11 -22 -42 -38 -70 -16 -27
-39 -68 -51 -90 -12 -22 -56 -101 -98 -175 -191 -342 -402 -723 -402 -728 0
-5 280 5 334 13 37 5 87 25 108 45 16 15 167 284 256 457 20 40 41 71 47 70 5
-2 77 -115 161 -252 84 -137 164 -261 178 -276 14 -14 44 -31 65 -38 43 -12
371 -28 371 -17 0 3 -19 37 -41 74 -23 37 -53 87 -67 112 -14 25 -40 69 -59
98 -18 29 -33 54 -33 56 0 2 -36 64 -80 137 -44 73 -80 134 -80 135 0 3 -65
115 -90 154 -5 8 -16 29 -25 45 -8 17 -50 88 -93 160 -68 113 -84 132 -123
152 -51 26 -109 29 -159 7z"/>
</g>
</svg>
